<mxfile host="app.diagrams.net" modified="2024-03-31T15:54:50.396Z" agent="Mozilla/5.0 (Windows NT 10.0; Win64; x64) AppleWebKit/537.36 (KHTML, like Gecko) Chrome/122.0.0.0 Safari/537.36 Edg/122.0.0.0" etag="xqV3VV5AGTdjhhrx9g_R" version="24.2.1" type="device">
  <diagram name="Page-1" id="yoR4f81BSue-psXf4Bo5">
    <mxGraphModel dx="2010" dy="1059" grid="1" gridSize="10" guides="1" tooltips="1" connect="1" arrows="1" fold="1" page="1" pageScale="1" pageWidth="850" pageHeight="1100" math="0" shadow="0">
      <root>
        <mxCell id="0" />
        <mxCell id="1" parent="0" />
        <mxCell id="1g0vZA3ziAIKpFJKvP0T-1" value="End User" style="shape=umlActor;verticalLabelPosition=bottom;verticalAlign=top;html=1;fontStyle=1" parent="1" vertex="1">
          <mxGeometry x="40" y="72.5" width="30" height="60" as="geometry" />
        </mxCell>
        <mxCell id="1g0vZA3ziAIKpFJKvP0T-3" value="Administrator" style="shape=umlActor;verticalLabelPosition=bottom;verticalAlign=top;html=1;fontStyle=1" parent="1" vertex="1">
          <mxGeometry x="40" y="902.5" width="30" height="60" as="geometry" />
        </mxCell>
        <mxCell id="1g0vZA3ziAIKpFJKvP0T-5" value="Content Creator" style="shape=umlActor;verticalLabelPosition=bottom;verticalAlign=top;html=1;fontStyle=1" parent="1" vertex="1">
          <mxGeometry x="40" y="570" width="30" height="60" as="geometry" />
        </mxCell>
        <mxCell id="ntI7J29-e9_nR_7QldBN-4" value="" style="endArrow=none;html=1;rounded=0;entryX=0;entryY=0.5;entryDx=0;entryDy=0;fontStyle=1" parent="1" source="1g0vZA3ziAIKpFJKvP0T-5" target="1g0vZA3ziAIKpFJKvP0T-35" edge="1">
          <mxGeometry width="50" height="50" relative="1" as="geometry">
            <mxPoint x="540" y="692.5" as="sourcePoint" />
            <mxPoint x="590" y="642.5" as="targetPoint" />
          </mxGeometry>
        </mxCell>
        <mxCell id="ntI7J29-e9_nR_7QldBN-5" value="" style="endArrow=none;html=1;rounded=0;entryX=1;entryY=1;entryDx=0;entryDy=0;fontStyle=1" parent="1" source="opZUWP1MInvZ8Omkorfc-9" target="SnJYljw1024A2q-Mxv-v-2" edge="1">
          <mxGeometry width="50" height="50" relative="1" as="geometry">
            <mxPoint x="690" y="332.5" as="sourcePoint" />
            <mxPoint x="630" y="337.5" as="targetPoint" />
          </mxGeometry>
        </mxCell>
        <mxCell id="ntI7J29-e9_nR_7QldBN-8" value="Payment System" style="shape=umlActor;verticalLabelPosition=bottom;verticalAlign=top;html=1;fontStyle=1" parent="1" vertex="1">
          <mxGeometry x="750" y="72.5" width="30" height="60" as="geometry" />
        </mxCell>
        <mxCell id="ntI7J29-e9_nR_7QldBN-9" value="" style="whiteSpace=wrap;html=1;aspect=fixed;strokeColor=default;align=center;verticalAlign=top;fontFamily=Helvetica;fontSize=12;fontColor=default;fillColor=default;fontStyle=1" parent="1" vertex="1">
          <mxGeometry x="755" y="67.5" width="20" height="20" as="geometry" />
        </mxCell>
        <mxCell id="SnJYljw1024A2q-Mxv-v-5" value="" style="endArrow=none;html=1;rounded=0;exitX=1;exitY=0.5;exitDx=0;exitDy=0;fontStyle=1" parent="1" source="1g0vZA3ziAIKpFJKvP0T-39" target="ntI7J29-e9_nR_7QldBN-8" edge="1">
          <mxGeometry width="50" height="50" relative="1" as="geometry">
            <mxPoint x="660" y="232.5" as="sourcePoint" />
            <mxPoint x="710" y="182.5" as="targetPoint" />
          </mxGeometry>
        </mxCell>
        <mxCell id="SnJYljw1024A2q-Mxv-v-6" value="" style="endArrow=none;html=1;rounded=0;exitX=1;exitY=0.5;exitDx=0;exitDy=0;fontStyle=1" parent="1" source="ntI7J29-e9_nR_7QldBN-1" target="opZUWP1MInvZ8Omkorfc-9" edge="1">
          <mxGeometry width="50" height="50" relative="1" as="geometry">
            <mxPoint x="660" y="467.5" as="sourcePoint" />
            <mxPoint x="730" y="369.2544875190549" as="targetPoint" />
          </mxGeometry>
        </mxCell>
        <mxCell id="SnJYljw1024A2q-Mxv-v-7" value="" style="endArrow=none;html=1;rounded=0;entryX=0;entryY=0.5;entryDx=0;entryDy=0;fontStyle=1" parent="1" source="1g0vZA3ziAIKpFJKvP0T-1" target="1g0vZA3ziAIKpFJKvP0T-39" edge="1">
          <mxGeometry width="50" height="50" relative="1" as="geometry">
            <mxPoint x="430" y="172.5" as="sourcePoint" />
            <mxPoint x="480" y="122.5" as="targetPoint" />
          </mxGeometry>
        </mxCell>
        <mxCell id="SnJYljw1024A2q-Mxv-v-8" value="" style="endArrow=none;html=1;rounded=0;entryX=0;entryY=0;entryDx=0;entryDy=0;fontStyle=1" parent="1" source="1g0vZA3ziAIKpFJKvP0T-1" target="1g0vZA3ziAIKpFJKvP0T-36" edge="1">
          <mxGeometry width="50" height="50" relative="1" as="geometry">
            <mxPoint x="290" y="92.5" as="sourcePoint" />
            <mxPoint x="340" y="42.5" as="targetPoint" />
          </mxGeometry>
        </mxCell>
        <mxCell id="SnJYljw1024A2q-Mxv-v-9" value="" style="endArrow=none;html=1;rounded=0;exitX=0;exitY=0;exitDx=0;exitDy=0;fontStyle=1" parent="1" source="1g0vZA3ziAIKpFJKvP0T-37" target="1g0vZA3ziAIKpFJKvP0T-1" edge="1">
          <mxGeometry width="50" height="50" relative="1" as="geometry">
            <mxPoint x="290" y="167.5" as="sourcePoint" />
            <mxPoint x="340" y="117.5" as="targetPoint" />
          </mxGeometry>
        </mxCell>
        <mxCell id="SnJYljw1024A2q-Mxv-v-18" value="" style="endArrow=none;html=1;rounded=0;exitX=0.033;exitY=0.308;exitDx=0;exitDy=0;exitPerimeter=0;fontStyle=1" parent="1" source="Dzd_2CjebibT4iyNx69e-2" target="1g0vZA3ziAIKpFJKvP0T-1" edge="1">
          <mxGeometry width="50" height="50" relative="1" as="geometry">
            <mxPoint x="280" y="160" as="sourcePoint" />
            <mxPoint x="560" y="367.5" as="targetPoint" />
            <Array as="points" />
          </mxGeometry>
        </mxCell>
        <mxCell id="opZUWP1MInvZ8Omkorfc-3" value="" style="endArrow=none;html=1;rounded=0;entryX=0;entryY=1;entryDx=0;entryDy=0;fontStyle=1" parent="1" source="1g0vZA3ziAIKpFJKvP0T-3" target="SnJYljw1024A2q-Mxv-v-15" edge="1">
          <mxGeometry width="50" height="50" relative="1" as="geometry">
            <mxPoint x="360" y="682.5" as="sourcePoint" />
            <mxPoint x="410" y="632.5" as="targetPoint" />
          </mxGeometry>
        </mxCell>
        <mxCell id="opZUWP1MInvZ8Omkorfc-4" value="" style="endArrow=none;html=1;rounded=0;entryX=0;entryY=1;entryDx=0;entryDy=0;fontStyle=1" parent="1" source="1g0vZA3ziAIKpFJKvP0T-3" target="SnJYljw1024A2q-Mxv-v-10" edge="1">
          <mxGeometry width="50" height="50" relative="1" as="geometry">
            <mxPoint x="130" y="934.5" as="sourcePoint" />
            <mxPoint x="288" y="855.5" as="targetPoint" />
          </mxGeometry>
        </mxCell>
        <mxCell id="opZUWP1MInvZ8Omkorfc-5" value="" style="endArrow=none;html=1;rounded=0;entryX=0;entryY=0.5;entryDx=0;entryDy=0;fontStyle=1" parent="1" source="1g0vZA3ziAIKpFJKvP0T-3" target="1g0vZA3ziAIKpFJKvP0T-42" edge="1">
          <mxGeometry width="50" height="50" relative="1" as="geometry">
            <mxPoint x="130" y="940.5" as="sourcePoint" />
            <mxPoint x="408" y="905.5" as="targetPoint" />
          </mxGeometry>
        </mxCell>
        <mxCell id="opZUWP1MInvZ8Omkorfc-6" value="" style="endArrow=none;html=1;rounded=0;exitX=0;exitY=0;exitDx=0;exitDy=0;fontStyle=1" parent="1" source="SnJYljw1024A2q-Mxv-v-12" target="1g0vZA3ziAIKpFJKvP0T-3" edge="1">
          <mxGeometry width="50" height="50" relative="1" as="geometry">
            <mxPoint x="360" y="682.5" as="sourcePoint" />
            <mxPoint x="240" y="962.5" as="targetPoint" />
          </mxGeometry>
        </mxCell>
        <mxCell id="opZUWP1MInvZ8Omkorfc-7" value="" style="endArrow=none;html=1;rounded=0;exitX=0;exitY=0;exitDx=0;exitDy=0;fontStyle=1" parent="1" source="SnJYljw1024A2q-Mxv-v-13" target="1g0vZA3ziAIKpFJKvP0T-3" edge="1">
          <mxGeometry width="50" height="50" relative="1" as="geometry">
            <mxPoint x="660" y="642.5" as="sourcePoint" />
            <mxPoint x="710" y="592.5" as="targetPoint" />
          </mxGeometry>
        </mxCell>
        <mxCell id="opZUWP1MInvZ8Omkorfc-9" value="License System" style="shape=umlActor;verticalLabelPosition=bottom;verticalAlign=top;html=1;fontStyle=1" parent="1" vertex="1">
          <mxGeometry x="750" y="380" width="30" height="60" as="geometry" />
        </mxCell>
        <mxCell id="opZUWP1MInvZ8Omkorfc-10" value="" style="whiteSpace=wrap;html=1;aspect=fixed;strokeColor=default;align=center;verticalAlign=top;fontFamily=Helvetica;fontSize=12;fontColor=default;fillColor=default;fontStyle=1" parent="1" vertex="1">
          <mxGeometry x="755" y="375" width="20" height="20" as="geometry" />
        </mxCell>
        <mxCell id="opZUWP1MInvZ8Omkorfc-14" value="" style="endArrow=none;html=1;rounded=0;exitX=1;exitY=0.5;exitDx=0;exitDy=0;fontStyle=1" parent="1" source="opZUWP1MInvZ8Omkorfc-13" target="opZUWP1MInvZ8Omkorfc-9" edge="1">
          <mxGeometry width="50" height="50" relative="1" as="geometry">
            <mxPoint x="410" y="442.5" as="sourcePoint" />
            <mxPoint x="460" y="392.5" as="targetPoint" />
          </mxGeometry>
        </mxCell>
        <mxCell id="1g0vZA3ziAIKpFJKvP0T-35" value="Upload Content" style="ellipse;whiteSpace=wrap;html=1;fillColor=#dae8fc;strokeColor=#6c8ebf;fontStyle=1" parent="1" vertex="1">
          <mxGeometry x="330" y="560" width="120" height="80" as="geometry" />
        </mxCell>
        <mxCell id="1g0vZA3ziAIKpFJKvP0T-37" value="Stream Content" style="ellipse;whiteSpace=wrap;html=1;fillColor=#dae8fc;strokeColor=#6c8ebf;fontStyle=1" parent="1" vertex="1">
          <mxGeometry x="330" y="360" width="120" height="80" as="geometry" />
        </mxCell>
        <mxCell id="ntI7J29-e9_nR_7QldBN-1" value="Issue License" style="ellipse;whiteSpace=wrap;html=1;fillColor=#e1d5e7;strokeColor=#9673a6;fontStyle=1" parent="1" vertex="1">
          <mxGeometry x="510" y="440" width="120" height="80" as="geometry" />
        </mxCell>
        <mxCell id="ntI7J29-e9_nR_7QldBN-2" value="" style="endArrow=classic;html=1;rounded=0;exitX=1;exitY=0;exitDx=0;exitDy=0;fontStyle=1" parent="1" source="1g0vZA3ziAIKpFJKvP0T-35" target="ntI7J29-e9_nR_7QldBN-1" edge="1">
          <mxGeometry width="50" height="50" relative="1" as="geometry">
            <mxPoint x="510" y="735" as="sourcePoint" />
            <mxPoint x="950" y="525" as="targetPoint" />
          </mxGeometry>
        </mxCell>
        <mxCell id="ntI7J29-e9_nR_7QldBN-3" value="&amp;lt;&amp;lt;extend&amp;gt;&amp;gt;" style="edgeLabel;html=1;align=center;verticalAlign=middle;resizable=0;points=[];fontStyle=0" parent="ntI7J29-e9_nR_7QldBN-2" vertex="1" connectable="0">
          <mxGeometry x="-0.1487" y="2" relative="1" as="geometry">
            <mxPoint as="offset" />
          </mxGeometry>
        </mxCell>
        <mxCell id="SnJYljw1024A2q-Mxv-v-2" value="Get License" style="ellipse;whiteSpace=wrap;html=1;fillColor=#e1d5e7;strokeColor=#9673a6;fontStyle=1" parent="1" vertex="1">
          <mxGeometry x="510" y="200" width="120" height="80" as="geometry" />
        </mxCell>
        <mxCell id="SnJYljw1024A2q-Mxv-v-3" value="" style="endArrow=classic;html=1;rounded=0;exitX=0.5;exitY=1;exitDx=0;exitDy=0;entryX=0.5;entryY=0;entryDx=0;entryDy=0;fontStyle=1" parent="1" source="1g0vZA3ziAIKpFJKvP0T-39" target="SnJYljw1024A2q-Mxv-v-2" edge="1">
          <mxGeometry width="50" height="50" relative="1" as="geometry">
            <mxPoint x="570" y="130" as="sourcePoint" />
            <mxPoint x="410" y="260" as="targetPoint" />
          </mxGeometry>
        </mxCell>
        <mxCell id="SnJYljw1024A2q-Mxv-v-4" value="&amp;lt;&amp;lt;include&amp;gt;&amp;gt;" style="edgeLabel;html=1;align=center;verticalAlign=middle;resizable=0;points=[];fontStyle=0" parent="SnJYljw1024A2q-Mxv-v-3" vertex="1" connectable="0">
          <mxGeometry x="-0.1487" y="2" relative="1" as="geometry">
            <mxPoint as="offset" />
          </mxGeometry>
        </mxCell>
        <mxCell id="SnJYljw1024A2q-Mxv-v-10" value="Modify User Account" style="ellipse;whiteSpace=wrap;html=1;fillColor=#f8cecc;strokeColor=#b85450;fontStyle=1" parent="1" vertex="1">
          <mxGeometry x="420" y="827.5" width="120" height="80" as="geometry" />
        </mxCell>
        <mxCell id="SnJYljw1024A2q-Mxv-v-12" value="Delete User Account" style="ellipse;whiteSpace=wrap;html=1;fillColor=#f8cecc;strokeColor=#b85450;fontStyle=1" parent="1" vertex="1">
          <mxGeometry x="420" y="962.5" width="120" height="80" as="geometry" />
        </mxCell>
        <mxCell id="SnJYljw1024A2q-Mxv-v-13" value="Create Special User Account" style="ellipse;whiteSpace=wrap;html=1;fillColor=#f8cecc;strokeColor=#b85450;fontStyle=1" parent="1" vertex="1">
          <mxGeometry x="290" y="992.5" width="120" height="80" as="geometry" />
        </mxCell>
        <mxCell id="SnJYljw1024A2q-Mxv-v-15" value="Delete Content" style="ellipse;whiteSpace=wrap;html=1;fillColor=#dae8fc;strokeColor=#6c8ebf;fontStyle=1" parent="1" vertex="1">
          <mxGeometry x="510" y="720" width="120" height="80" as="geometry" />
        </mxCell>
        <mxCell id="opZUWP1MInvZ8Omkorfc-13" value="Verify License" style="ellipse;whiteSpace=wrap;html=1;fillColor=#e1d5e7;strokeColor=#9673a6;fontStyle=1" parent="1" vertex="1">
          <mxGeometry x="510" y="310" width="120" height="80" as="geometry" />
        </mxCell>
        <mxCell id="opZUWP1MInvZ8Omkorfc-15" value="" style="endArrow=classic;html=1;rounded=0;exitX=1;exitY=0.5;exitDx=0;exitDy=0;entryX=0;entryY=0;entryDx=0;entryDy=0;fontStyle=1" parent="1" source="1g0vZA3ziAIKpFJKvP0T-36" target="opZUWP1MInvZ8Omkorfc-13" edge="1">
          <mxGeometry width="50" height="50" relative="1" as="geometry">
            <mxPoint x="580" y="140" as="sourcePoint" />
            <mxPoint x="580" y="195" as="targetPoint" />
          </mxGeometry>
        </mxCell>
        <mxCell id="opZUWP1MInvZ8Omkorfc-16" value="&amp;lt;&amp;lt;extend&amp;gt;&amp;gt;" style="edgeLabel;html=1;align=center;verticalAlign=middle;resizable=0;points=[];fontStyle=0" parent="opZUWP1MInvZ8Omkorfc-15" vertex="1" connectable="0">
          <mxGeometry x="-0.1487" y="2" relative="1" as="geometry">
            <mxPoint as="offset" />
          </mxGeometry>
        </mxCell>
        <mxCell id="opZUWP1MInvZ8Omkorfc-17" value="" style="endArrow=classic;html=1;rounded=0;exitX=1;exitY=0.5;exitDx=0;exitDy=0;entryX=0;entryY=1;entryDx=0;entryDy=0;fontStyle=1" parent="1" source="1g0vZA3ziAIKpFJKvP0T-37" target="opZUWP1MInvZ8Omkorfc-13" edge="1">
          <mxGeometry width="50" height="50" relative="1" as="geometry">
            <mxPoint x="460" y="295" as="sourcePoint" />
            <mxPoint x="538" y="332" as="targetPoint" />
          </mxGeometry>
        </mxCell>
        <mxCell id="opZUWP1MInvZ8Omkorfc-18" value="&amp;lt;&amp;lt;extend&amp;gt;&amp;gt;" style="edgeLabel;html=1;align=center;verticalAlign=middle;resizable=0;points=[];fontStyle=0" parent="opZUWP1MInvZ8Omkorfc-17" vertex="1" connectable="0">
          <mxGeometry x="-0.1487" y="2" relative="1" as="geometry">
            <mxPoint as="offset" />
          </mxGeometry>
        </mxCell>
        <mxCell id="1g0vZA3ziAIKpFJKvP0T-36" value="Download Content" style="ellipse;whiteSpace=wrap;html=1;fillColor=#dae8fc;strokeColor=#6c8ebf;fontStyle=1" parent="1" vertex="1">
          <mxGeometry x="330" y="240" width="120" height="80" as="geometry" />
        </mxCell>
        <mxCell id="1g0vZA3ziAIKpFJKvP0T-42" value="Block User Account" style="ellipse;whiteSpace=wrap;html=1;fillColor=#f8cecc;strokeColor=#b85450;fontStyle=1" parent="1" vertex="1">
          <mxGeometry x="530" y="892.5" width="120" height="80" as="geometry" />
        </mxCell>
        <mxCell id="1g0vZA3ziAIKpFJKvP0T-39" value="&lt;span&gt;Purchasing Content&lt;/span&gt;" style="ellipse;whiteSpace=wrap;html=1;fillColor=#ffe6cc;strokeColor=#d79b00;fontStyle=1" parent="1" vertex="1">
          <mxGeometry x="510" y="65" width="120" height="80" as="geometry" />
        </mxCell>
        <mxCell id="Dzd_2CjebibT4iyNx69e-1" value="&lt;span&gt;Streaming System&lt;/span&gt;" style="shape=umlFrame;whiteSpace=wrap;html=1;pointerEvents=0;width=150;height=30;fontStyle=1" parent="1" vertex="1">
          <mxGeometry x="150" y="30" width="520" height="1060" as="geometry" />
        </mxCell>
        <object label="Register Account" id="Dzd_2CjebibT4iyNx69e-2">
          <mxCell style="ellipse;whiteSpace=wrap;html=1;fillColor=#f8cecc;strokeColor=#b85450;fontStyle=1" parent="1" vertex="1">
            <mxGeometry x="250" y="120" width="120" height="80" as="geometry" />
          </mxCell>
        </object>
        <mxCell id="Dzd_2CjebibT4iyNx69e-5" value="" style="endArrow=none;html=1;rounded=0;entryX=0;entryY=1;entryDx=0;entryDy=0;fontStyle=1" parent="1" source="1g0vZA3ziAIKpFJKvP0T-3" target="1g0vZA3ziAIKpFJKvP0T-36" edge="1">
          <mxGeometry width="50" height="50" relative="1" as="geometry">
            <mxPoint x="780" y="640" as="sourcePoint" />
            <mxPoint x="90" y="800" as="targetPoint" />
          </mxGeometry>
        </mxCell>
        <mxCell id="Dzd_2CjebibT4iyNx69e-6" value="" style="endArrow=none;html=1;rounded=0;entryX=0;entryY=1;entryDx=0;entryDy=0;fontStyle=1" parent="1" source="1g0vZA3ziAIKpFJKvP0T-3" target="1g0vZA3ziAIKpFJKvP0T-37" edge="1">
          <mxGeometry width="50" height="50" relative="1" as="geometry">
            <mxPoint x="600" y="560" as="sourcePoint" />
            <mxPoint x="650" y="510" as="targetPoint" />
          </mxGeometry>
        </mxCell>
        <mxCell id="Dzd_2CjebibT4iyNx69e-7" value="" style="endArrow=none;html=1;rounded=0;entryX=0;entryY=1;entryDx=0;entryDy=0;fontStyle=1" parent="1" source="1g0vZA3ziAIKpFJKvP0T-3" target="1g0vZA3ziAIKpFJKvP0T-35" edge="1">
          <mxGeometry width="50" height="50" relative="1" as="geometry">
            <mxPoint x="80" y="917" as="sourcePoint" />
            <mxPoint x="358" y="438" as="targetPoint" />
          </mxGeometry>
        </mxCell>
        <mxCell id="Dzd_2CjebibT4iyNx69e-10" value="Remove License" style="ellipse;whiteSpace=wrap;html=1;fillColor=#e1d5e7;strokeColor=#9673a6;fontStyle=1" parent="1" vertex="1">
          <mxGeometry x="510" y="540" width="120" height="80" as="geometry" />
        </mxCell>
        <mxCell id="Dzd_2CjebibT4iyNx69e-11" value="" style="endArrow=classic;html=1;rounded=0;exitX=0.5;exitY=0;exitDx=0;exitDy=0;entryX=0.5;entryY=1;entryDx=0;entryDy=0;fontStyle=1" parent="1" source="SnJYljw1024A2q-Mxv-v-15" target="Dzd_2CjebibT4iyNx69e-10" edge="1">
          <mxGeometry width="50" height="50" relative="1" as="geometry">
            <mxPoint x="442" y="580" as="sourcePoint" />
            <mxPoint x="537" y="518" as="targetPoint" />
          </mxGeometry>
        </mxCell>
        <mxCell id="Dzd_2CjebibT4iyNx69e-12" value="&amp;lt;&amp;lt;extend&amp;gt;&amp;gt;" style="edgeLabel;html=1;align=center;verticalAlign=middle;resizable=0;points=[];fontStyle=0" parent="Dzd_2CjebibT4iyNx69e-11" vertex="1" connectable="0">
          <mxGeometry x="-0.1487" y="2" relative="1" as="geometry">
            <mxPoint as="offset" />
          </mxGeometry>
        </mxCell>
        <mxCell id="Dzd_2CjebibT4iyNx69e-13" value="" style="endArrow=none;html=1;rounded=0;exitX=0.833;exitY=0.075;exitDx=0;exitDy=0;exitPerimeter=0;fontStyle=1" parent="1" source="Dzd_2CjebibT4iyNx69e-10" target="opZUWP1MInvZ8Omkorfc-9" edge="1">
          <mxGeometry width="50" height="50" relative="1" as="geometry">
            <mxPoint x="600" y="600" as="sourcePoint" />
            <mxPoint x="740" y="420" as="targetPoint" />
          </mxGeometry>
        </mxCell>
        <mxCell id="Dzd_2CjebibT4iyNx69e-16" value="" style="endArrow=none;html=1;rounded=0;strokeColor=#FFFFFF;" parent="1" edge="1">
          <mxGeometry width="50" height="50" relative="1" as="geometry">
            <mxPoint x="840" y="1090" as="sourcePoint" />
            <mxPoint x="840" as="targetPoint" />
          </mxGeometry>
        </mxCell>
        <mxCell id="Dzd_2CjebibT4iyNx69e-17" value="" style="endArrow=none;html=1;rounded=0;strokeColor=#FFFFFF;" parent="1" edge="1">
          <mxGeometry width="50" height="50" relative="1" as="geometry">
            <mxPoint x="10" y="1090" as="sourcePoint" />
            <mxPoint x="10" as="targetPoint" />
          </mxGeometry>
        </mxCell>
      </root>
    </mxGraphModel>
  </diagram>
</mxfile>
